<svg width="89" height="65" viewBox="0 0 89 65" fill="none" xmlns="http://www.w3.org/2000/svg">
<path d="M45.6041 0.5C36.8353 0.5 29.7189 7.60817 29.7189 16.3669V29.9976H17.885V32.2338H29.7189V34.2305C29.7189 41.738 23.5888 47.8612 16.0726 47.8612C8.55652 47.8612 2.42635 41.738 2.42635 34.2305C2.42635 26.723 8.55652 20.5999 16.0726 20.5999H27.2935V18.3636H16.0726C7.30383 18.3636 0.1875 25.4718 0.1875 34.2305C0.1875 42.9893 7.30383 50.0974 16.0726 50.0974C24.8415 50.0974 31.9578 42.9893 31.9578 34.2305V32.2338H45.6041C54.3729 32.2338 61.4892 25.1257 61.4892 16.3669C61.4892 7.60817 54.3729 0.5 45.6041 0.5ZM45.6041 29.9976H31.9578V16.3669C31.9578 8.85942 38.088 2.73628 45.6041 2.73628C53.1202 2.73628 59.2504 8.85942 59.2504 16.3669C59.2504 23.8744 53.1202 29.9976 45.6041 29.9976Z" fill="#00394D"/>
<path d="M38.9408 38.9695C39.5272 38.9695 40.0602 39.1292 40.46 39.3954C40.8865 39.6883 41.153 40.1142 41.3129 40.6733L40.5133 40.9129C40.4067 40.5668 40.2201 40.274 39.9803 40.1142C39.7137 39.9279 39.3673 39.8214 38.9408 39.8214H38.8075C38.2478 39.8214 37.848 39.9811 37.5549 40.274C37.2617 40.5934 37.1284 41.0726 37.1284 41.7116V43.5752C37.1284 44.2141 37.2883 44.6933 37.5549 45.0128C37.848 45.3056 38.2478 45.4653 38.8075 45.4653C39.3673 45.4653 39.767 45.3056 40.0602 45.0128C40.3534 44.6933 40.5133 44.2141 40.5133 43.5752V43.0693H38.8342V42.2174H41.3662V43.5752C41.3662 44.4271 41.153 45.1192 40.7266 45.5718C40.5133 45.8114 40.2201 46.0244 39.9003 46.1309C39.6071 46.2374 39.234 46.3173 38.8608 46.3173C38.4877 46.3173 38.1146 46.264 37.8214 46.1309C37.5015 45.9978 37.235 45.8114 36.9951 45.5718C36.5687 45.0926 36.3555 44.4271 36.3555 43.5752V41.7116C36.3555 40.8597 36.5687 40.1941 36.9951 39.7149C37.2084 39.4753 37.5015 39.2889 37.8214 39.1558C38.1146 39.0493 38.4877 38.9695 38.8608 38.9695H38.9408Z" fill="#00394D"/>
<path d="M47.8406 38.9695C48.6136 38.9695 49.2266 39.1558 49.6797 39.5552C50.1328 39.9545 50.3727 40.5402 50.3727 41.259C50.3727 41.9778 50.1328 42.5635 49.6797 42.9628C49.3065 43.2823 48.8268 43.4687 48.2404 43.5219L50.346 46.3439H49.3065L47.201 43.5485H46.1615V46.3439H45.3086V38.9961H47.8406V38.9695ZM46.1615 42.6966H47.8406C48.4003 42.6966 48.8268 42.5635 49.12 42.3239C49.1466 42.3239 49.1733 42.2973 49.1733 42.2707C49.4131 42.0311 49.5198 41.7116 49.5198 41.2856V41.2324C49.5198 40.7532 49.3865 40.4071 49.12 40.1675C48.8534 39.9279 48.427 39.7948 47.8406 39.7948H46.1615V42.6966Z" fill="#00394D"/>
<path d="M59.3037 43.5752C59.3037 44.4271 59.0905 45.1192 58.6641 45.5718C58.4508 45.8114 58.1576 46.0244 57.8378 46.1309C57.5446 46.2374 57.1715 46.3173 56.7983 46.3173C56.4252 46.3173 56.0521 46.264 55.7589 46.1309C55.439 45.9978 55.1725 45.8114 54.9326 45.5718C54.5062 45.0926 54.293 44.4271 54.293 43.5752V38.9695H55.1459V43.5752C55.1459 44.2141 55.3058 44.6933 55.5723 45.0128C55.8655 45.3056 56.2653 45.4653 56.825 45.4653C57.3847 45.4653 57.7845 45.3056 58.0777 45.0128C58.3709 44.6933 58.5308 44.2141 58.5308 43.5752V38.9695H59.3837V43.5752H59.3037Z" fill="#00394D"/>
<path d="M66.0203 38.9695C66.7932 38.9695 67.4063 39.1558 67.8594 39.5552C68.3125 39.9545 68.5523 40.5402 68.5523 41.259C68.5523 41.9778 68.3125 42.5635 67.8594 42.9628C67.4063 43.3622 66.7932 43.5485 66.0203 43.5485H64.3412V46.3439H63.4883V38.9961H66.0203V38.9695ZM64.3412 42.6966H66.0203C66.58 42.6966 67.0065 42.5635 67.2997 42.3239C67.5662 42.0843 67.6994 41.7382 67.6994 41.259C67.6994 40.7798 67.5662 40.4337 67.2997 40.1941C67.0331 39.9545 66.6067 39.8214 66.0203 39.8214H64.3412V42.6966Z" fill="#00394D"/>
<path d="M75.7987 39.1558C76.1186 39.2889 76.3851 39.4753 76.625 39.7149C77.0514 40.1941 77.2647 40.8597 77.2647 41.7116V43.5752C77.2647 44.4271 77.0514 45.1192 76.625 45.5718C76.4118 45.8114 76.1186 46.0244 75.7987 46.1309C75.5056 46.2374 75.1324 46.3173 74.7593 46.3173C74.3861 46.3173 74.013 46.264 73.7198 46.1309C73.4 45.9978 73.1335 45.8114 72.8936 45.5718C72.4671 45.0926 72.2539 44.4271 72.2539 43.5752V41.7116C72.2539 40.8597 72.4671 40.1941 72.8936 39.7149C73.1068 39.4753 73.4 39.2889 73.7198 39.1558C74.013 39.0493 74.3861 38.9695 74.7593 38.9695C75.1324 38.9695 75.4789 39.0227 75.7987 39.1558ZM73.5066 40.274C73.2134 40.5934 73.0801 41.0726 73.0801 41.7116V43.5752C73.0801 44.2141 73.2401 44.6933 73.5066 45.0128C73.7998 45.3056 74.1996 45.4653 74.7593 45.4653C75.319 45.4653 75.7188 45.3056 76.012 45.0128C76.3052 44.6933 76.4651 44.2141 76.4651 43.5752V41.7116C76.4651 41.0726 76.3052 40.5934 76.012 40.274C75.7454 39.9811 75.319 39.8214 74.7593 39.8214C74.1996 39.7948 73.7731 39.9545 73.5066 40.274Z" fill="#00394D"/>
<path d="M4.34443 52.0408C5.67707 52.0408 6.74319 52.3869 7.51613 53.0791C8.31571 53.7712 8.74216 54.7829 8.74216 56.0341C8.74216 57.2588 8.34237 58.2704 7.51613 58.9892C6.74319 59.6548 5.70373 60.0009 4.34443 60.0009H1.94566V64.5H0V52.0142H4.34443V52.0408ZM1.97232 58.0308H4.37108C5.19732 58.0308 5.83699 57.8445 6.23679 57.4984C6.60993 57.1789 6.7965 56.6731 6.7965 56.0075C6.7965 55.342 6.60993 54.8361 6.23679 54.5167C5.83699 54.1706 5.19732 53.9842 4.37108 53.9842H1.97232V58.0308Z" fill="#00394D"/>
<path d="M18.6586 53.3453C19.4049 54.1706 19.778 55.3153 19.778 56.7795V59.7879C19.778 61.2521 19.4049 62.3969 18.6586 63.2222C17.8857 64.0741 16.7662 64.5267 15.4336 64.5267C14.0743 64.5267 12.9549 64.0741 12.1819 63.2222C11.4356 62.3969 11.0625 61.2521 11.0625 59.7879V56.7795C11.0625 55.3153 11.4356 54.1706 12.1819 53.3453C12.9549 52.4933 14.0743 52.0408 15.4336 52.0408C16.7662 52.0408 17.8857 52.4667 18.6586 53.3453ZM13.6478 54.6231C13.248 55.0757 13.0348 55.8211 13.0348 56.7529V59.7613C13.0348 60.693 13.248 61.4385 13.6478 61.891C14.0476 62.317 14.634 62.53 15.4336 62.53C16.2065 62.53 16.8195 62.317 17.1927 61.891C17.5925 61.4385 17.8057 60.693 17.8057 59.7613V56.7529C17.8057 55.8211 17.5925 55.0757 17.1927 54.6231C16.8195 54.1972 16.2065 53.9842 15.4336 53.9842C14.6073 53.9842 14.021 54.1972 13.6478 54.6231Z" fill="#00394D"/>
<path d="M27 52.0408C28.3326 52.0408 29.3987 52.3869 30.1717 53.0791C30.9446 53.7712 31.3711 54.7829 31.3711 56.0341C31.3711 57.2588 30.9713 58.2704 30.1717 58.9892C29.5853 59.495 28.839 59.8145 27.9328 59.9476L31.3711 64.5H28.919L25.5341 60.0009H24.6012V64.5H22.6289V52.0142H27V52.0408ZM24.6012 58.0308H27C27.8262 58.0308 28.4659 57.8445 28.8657 57.4984C29.2122 57.1789 29.3988 56.6731 29.3988 56.0075C29.3988 55.342 29.2122 54.8361 28.8657 54.5167C28.4659 54.1706 27.8262 53.9842 27 53.9842H24.6012V58.0308Z" fill="#00394D"/>
<path d="M37.9007 53.9842V64.5H35.9284V53.9842H33.3164V52.0142H40.486V53.9842H37.9007Z" fill="#00394D"/>
<path d="M45.1208 53.9842V57.2854H50.5313V59.2554H45.1208V64.5267H43.1484V52.0408H50.5313V54.0108H45.1208V53.9842Z" fill="#00394D"/>
<path d="M60.8226 53.3453C61.5689 54.1706 61.9421 55.3153 61.9421 56.7795V59.7879C61.9421 61.2521 61.5689 62.3969 60.8226 63.2222C60.0497 64.0741 58.9303 64.5267 57.5976 64.5267C56.2383 64.5267 55.1189 64.0741 54.346 63.2222C53.5997 62.3969 53.2266 61.2521 53.2266 59.7879V56.7795C53.2266 55.3153 53.5997 54.1706 54.346 53.3453C55.1189 52.4933 56.2383 52.0408 57.5976 52.0408C58.9303 52.0408 60.0497 52.4667 60.8226 53.3453ZM55.7852 54.6231C55.3855 55.0757 55.1722 55.8211 55.1722 56.7529V59.7613C55.1722 60.693 55.3855 61.4385 55.7852 61.891C56.185 62.317 56.7714 62.53 57.571 62.53C58.3439 62.53 58.9569 62.317 59.3301 61.891C59.7299 61.4385 59.9431 60.693 59.9431 59.7613V56.7529C59.9431 55.8211 59.7299 55.0757 59.3301 54.6231C58.9569 54.1972 58.3439 53.9842 57.571 53.9842C56.7714 53.9842 56.185 54.1972 55.7852 54.6231Z" fill="#00394D"/>
<path d="M72.1758 62.5566V64.5267H64.793V52.0408H66.7653V62.5566H72.1758Z" fill="#00394D"/>
<path d="M74.8438 64.5V52.0142H76.8161V64.5H74.8438Z" fill="#00394D"/>
<path d="M87.2641 53.3453C88.0103 54.1706 88.3835 55.3153 88.3835 56.7795V59.7879C88.3835 61.2521 88.0103 62.3969 87.2641 63.2222C86.4911 64.0741 85.3717 64.5267 84.039 64.5267C82.6797 64.5267 81.5603 64.0741 80.7874 63.2222C80.0411 62.3969 79.668 61.2521 79.668 59.7879V56.7795C79.668 55.3153 80.0411 54.1706 80.7874 53.3453C81.5603 52.4933 82.6797 52.0408 84.039 52.0408C85.3717 52.0408 86.4911 52.4667 87.2641 53.3453ZM82.2533 54.6231C81.8535 55.0757 81.6403 55.8211 81.6403 56.7529V59.7613C81.6403 60.693 81.8535 61.4385 82.2533 61.891C82.6531 62.317 83.2395 62.53 84.039 62.53C84.812 62.53 85.425 62.317 85.7981 61.891C86.1979 61.4385 86.4112 60.693 86.4112 59.7613V56.7529C86.4112 55.8211 86.1979 55.0757 85.7981 54.6231C85.425 54.1972 84.812 53.9842 84.039 53.9842C83.2395 53.9842 82.6531 54.1972 82.2533 54.6231Z" fill="#00394D"/>
</svg>
